# xmcd
#
# Track frame offsets: 
#        150
#        21787
#        44372
#        60209
#        84280
#        101154
#        122540
#        141438
#        160353
#        184179
#        204547
#        223040
#
# Disc length: 3317 seconds
#
# Revision: 0
# Processed by: cddbd v1.5.1PL0 Copyright (c) Steve Scherf et al.
# Submitted via: ExactAudioCopy v0.95a5
#
DISCID=a50cf30c
DTITLE=Mighty Mike Schermer - Next Set
DYEAR=2005
DGENRE=Blues
TTITLE0=Got My Love On
TTITLE1=My Big Sister's Radio
TTITLE2=Rain Down Tears
TTITLE3=That Same Door
TTITLE4=Mama Say
TTITLE5=Real Fine Love
TTITLE6=Rediscovered
TTITLE7=Big Fine Girl
TTITLE8=It All Went Down The Drain
TTITLE9=One Good Reason
TTITLE10=Talkin' 'Bout My Baby
TTITLE11=Setting Sun
EXTD=
EXTT0=
EXTT1=
EXTT2=
EXTT3=
EXTT4=
EXTT5=
EXTT6=
EXTT7=
EXTT8=
EXTT9=
EXTT10=
EXTT11=
PLAYORDER=
